# xmcd
#
# Track frame offsets:
# 150
# 14975
# 30435
# 44025
# 57187
# 71412
# 91325
# 108247
# 125775
# 138285
# 156300
# 174537
#
# Disc length: 2500 seconds
#
#
# Revision: 0
# Processed by: cddbd v1.5.2PL0 Copyright (c) Steve Scherf et al.
# Submitted via: FreeRIP 2.00 
#
DISCID=a909c20c
DTITLE=All Round - All Round
DYEAR=1900
DGENRE=Country
TTITLE0=The good old hometown
TTITLE1=Vores første ungdomsbal
TTITLE2=Nowhere train
TTITLE3=Heartbreak anenue
TTITLE4=Hard to say goodbye
TTITLE5=Hvorfor ser du helst den anden vej
TTITLE6=Alene
TTITLE7=Honky tonk country shuffle blues
TTITLE8=Vent til jeg får fat på dig
TTITLE9=Peaceful easy feelin
TTITLE10=For the good times
TTITLE11=Ann-Mari
EXTD=
EXTT0=
EXTT1=
EXTT2=
EXTT3=
EXTT4=
EXTT5=
EXTT6=
EXTT7=
EXTT8=
EXTT9=
EXTT10=
EXTT11=
PLAYORDER=
